PathFileType	4	(X/Y/Z)	C:\Users\WrightLab\Desktop\Jo\P4V115.trc
DataRate	CameraRate	NumFrames	NumMarkers	Units	OrigDataRate	OrigDataStartFrame	OrigNumFrames
100.00	100.00	       13	19	mm	100.00	399	       637
Frame#	Time	Headset_Front			Headset_Back			Headset_Left			Headset_Right			Left_Shoulder			Right_Shoulder			Sternum			C7			Left Elbow			Right Elbow			Left Wrist			Right Wrist			Left ASIS			Right ASIS			S2			Left Knee			Right Knee			Left Ankle			Right Ankle			
		X1	Y1	Z1	X2	Y2	Z2	X3	Y3	Z3	X4	Y4	Z4	X5	Y5	Z5	X6	Y6	Z6	X7	Y7	Z7	X8	Y8	Z8	X9	Y9	Z9	X10	Y10	Z10	X11	Y11	Z11	X12	Y12	Z12	X13	Y13	Z13	X14	Y14	Z14	X15	Y15	Z15	X16	Y16	Z16	X17	Y17	Z17	X18	Y18	Z18	X19	Y19	Z19	

399	3.980	125.40690	1697.47803	828.49805							-9.49934	1722.79895	762.81250	170.86357	1529.92200	541.46753	-82.26263	1551.71045	714.44305	113.44656	1481.72949	716.81537	11.82668	1571.10706	579.33124	281.73480	1180.88525	458.16815	-187.00941	1210.49988	835.38831	363.83917	905.60193	581.60956	-77.96746	962.69385	975.81921	205.21611	1055.08899	619.90472	-56.71667	1041.20374	828.30011	-26.82242	1062.20068	566.30493	254.82870	572.78607	634.49146	-12.90728	580.99152	919.80872	192.04929	71.85989	581.76953	-123.04115	263.40994	554.11798	
400	3.990	129.77110	1698.67322	838.11597							-4.17329	1723.62622	771.44116	178.30293	1531.86719	552.27179	-76.91884	1553.19153	721.60968	118.51566	1483.12891	725.83997	18.42632	1572.75513	587.72101	292.97296	1184.06018	469.81268	-183.99185	1211.42432	840.19165	376.06046	909.97797	597.55170	-78.81812	963.64764	982.44611	210.59990	1056.14795	628.28394	-53.14697	1043.33716	833.51123	-21.21345	1063.75769	572.60175	256.37524	572.90167	637.02979	-5.87544	586.87360	933.30658	191.73514	72.41319	582.20056	-103.33060	257.12076	572.42505	
401	4.000	133.58542	1699.71753	847.99988							0.24506	1724.26599	780.32690	185.02847	1532.94800	563.52570	-73.28508	1554.89734	729.02448	123.47758	1484.20703	735.22369	25.02798	1574.12256	596.18256	303.37244	1186.57825	482.57120	-182.09673	1213.12891	844.99158	387.43112	914.38092	613.56476	-79.54914	963.87793	987.73425	216.00755	1057.06226	635.69513	-48.50349	1045.23621	839.74719	-16.36616	1065.69543	577.29138	256.95654	572.92151	641.77533	1.07089	592.49951	947.04681	191.70633	72.66729	583.24982	-83.21252	249.32864	591.36334	
402	4.010	137.97046	1700.32471	857.52936							5.26177	1724.39197	789.05878	191.03108	1534.91125	572.82440	-68.52514	1555.75085	736.13550	127.49936	1484.85510	744.58673	31.48190	1575.35632	604.62653	314.17752	1188.87817	495.24820	-180.03026	1214.15686	849.72351	399.07108	918.74353	630.16150	-81.46590	964.50482	993.52191	221.01973	1057.76050	644.33862	-44.29018	1047.17871	846.96503	-10.74726	1066.44397	585.34827	257.99982	572.35291	645.84247	7.25262	597.77509	959.87970	191.34138	73.00618	583.62628	-63.40975	241.63496	611.09546	
403	4.020	141.73914	1700.90979	867.36273							9.09013	1725.01477	797.93213	198.83656	1536.14099	583.53461	-63.14406	1556.43860	742.92456	131.80942	1485.36865	754.04663				325.03464	1190.56055	508.49561	-178.19551	1214.78906	854.41815	410.29337	922.94696	646.92102	-82.72086	965.04834	1000.09161	226.08685	1058.05969	653.12085	-40.89561	1048.54346	853.12262	-5.21911	1067.18835	593.35785	260.02161	572.87970	648.64777	12.05058	602.61774	972.28479	191.15814	73.83622	584.29468	-43.63078	233.06183	631.79150	
404	4.030	145.03618	1701.24011	877.29132							12.86696	1725.52722	806.75305	205.14500	1536.84888	594.99341	-58.29881	1556.56995	749.84894	136.41180	1485.87207	763.38257				335.77722	1192.50586	520.81592	-176.75523	1215.22815	858.88422	420.78531	926.58575	663.08582	-84.27640	965.16986	1006.29797	230.94753	1058.69824	662.38275	-37.08486	1049.77466	860.88525	0.27708	1067.83203	601.22540	260.88632	572.47870	653.38550	18.15232	606.00885	982.90680	191.21030	73.94808	584.79938	-23.82081	224.12109	652.53925	
405	4.040	148.39645	1701.49951	887.09406							16.94371	1725.43201	815.56250	211.98175	1538.05640	606.40253	-54.37665	1556.71277	756.96143	140.12212	1486.13538	773.26837				346.29321	1194.52515	533.88733	-174.69304	1215.56775	863.27979	432.61050	930.53699	679.25104	-85.81396	965.59613	1012.19934	235.58772	1058.86621	671.17529	-33.48322	1050.59998	866.86694	5.59487	1068.60522	609.11859	262.44666	572.26447	657.01025	22.11270	609.86487	993.96704	191.18425	74.40445	584.80280	-5.68742	215.27841	675.04645	
406	4.050	151.79256	1701.85376	896.93219							20.82513	1725.24731	824.39423	217.77858	1537.98328	616.11249	-50.78975	1557.08679	763.96387	143.88181	1485.99670	782.57501				356.20450	1196.07373	546.94672	-173.17033	1215.75610	867.53241	443.53220	934.44397	696.05981	-88.12332	966.23181	1018.56866	240.06654	1059.33997	679.50659	-31.11906	1052.03076	875.30438				265.18555	572.61548	661.24390	26.00093	613.07922	1004.82397	191.33710	74.81888	585.25555	12.98486	205.53809	698.72754	
407	4.060	154.62192	1701.87964	907.02545							24.51097	1724.91333	833.18781	224.22903	1538.65540	628.10883	-46.01891	1557.14880	770.70667	147.56302	1485.72644	792.34247				366.63718	1197.44434	560.38422	-171.52377	1215.56946	872.04663	453.66470	937.67712	712.24603	-89.32935	965.92603	1024.76880	245.21359	1059.28589	689.17322	-26.94869	1053.07910	882.69098	15.68517	1069.53174	622.37964	266.82718	572.69421	664.81079	29.18788	615.83368	1015.11682	191.45340	75.06691	585.48871	30.49144	195.10979	724.37604	
408	4.070	157.64503	1701.53601	916.82410							27.39699	1724.55029	842.21210	230.37675	1537.99060	639.10474	-42.68402	1556.62134	777.99768	150.81926	1485.39648	802.30560				376.77618	1199.42688	573.57056	-170.16510	1215.38428	876.00873	464.20358	941.49164	729.32465	-90.36355	966.25562	1031.32800	249.60121	1059.49817	699.08661	-24.78526	1051.96521	889.27612	21.16705	1070.19617	630.43842	268.52289	572.79108	668.65491	33.83654	617.00238	1023.67700	191.54546	75.35626	585.83575	47.45490	185.01750	749.31067	
409	4.080	159.75923	1701.37512	926.88013							31.00192	1724.03528	850.98468	236.28214	1538.66040	650.32581	-39.14976	1556.48450	785.05963	154.09261	1484.95068	812.08807				385.89893	1200.71350	587.56567	-168.45441	1215.20837	880.59747	474.41827	944.63812	745.35400	-92.11555	966.47388	1036.94312	253.80605	1059.11035	707.97791	-22.08449	1050.97485	896.00073	26.24437	1070.83191	636.44501	270.18417	572.78223	672.62219	36.23276	618.79688	1032.99219	191.15466	75.99995	586.07538	62.74323	175.67239	775.64850	
410	4.090	163.01114	1700.84741	936.92993							33.78743	1723.44531	859.90802	242.07645	1538.09106	662.40637	-34.91592	1555.86023	792.19147	157.14645	1484.17627	822.04120				395.39777	1201.99817	600.96216	-167.04451	1214.92395	884.52979	484.21973	948.19861	762.04980	-93.17727	966.57806	1043.70398	258.18173	1058.53210	717.82562	-19.38761	1050.95752	902.98254	31.84513	1071.28149	644.62213	271.70941	572.22327	675.97040	39.59735	619.61639	1041.44543	191.33015	76.44865	586.41364	78.07655	165.70227	803.07941	
411	4.100	164.85529	1700.01465	946.90302							36.53835	1722.50940	868.90552	247.33237	1538.40161	673.78064	-31.71442	1555.48157	799.39581	160.17622	1483.23914	832.27820				404.29492	1203.40454	614.92340	-165.07610	1214.18738	888.61182	493.08569	951.04053	778.85846	-95.12109	966.42633	1049.86572	262.20862	1058.51550	727.83716	-16.33198	1050.50159	910.72925	36.81162	1069.68237	653.91528	274.04724	572.69000	680.53754	42.01695	619.91382	1049.51599	191.28525	76.62769	586.68274	93.16254	155.59389	830.62000	
